<?xml version="1.0" encoding="UTF-8" standalone="no"?>
<svg
   xmlns:dc="http://purl.org/dc/elements/1.1/"
   xmlns:cc="http://creativecommons.org/ns#"
   xmlns:rdf="http://www.w3.org/1999/02/22-rdf-syntax-ns#"
   xmlns:svg="http://www.w3.org/2000/svg"
   xmlns="http://www.w3.org/2000/svg"
   viewBox="0 0 27.1875 29.376249"
   height="29.376249"
   width="27.1875"
   xml:space="preserve"
   version="1.1"
   id="svg2"><metadata
     id="metadata8"><rdf:RDF><cc:Work
         rdf:about=""><dc:format>image/svg+xml</dc:format><dc:type
           rdf:resource="http://purl.org/dc/dcmitype/StillImage" /></cc:Work></rdf:RDF></metadata><defs
     id="defs6"><clipPath
       id="clipPath16"
       clipPathUnits="userSpaceOnUse"><path
         id="path18"
         d="m 0,23.501 21.75,0 L 21.75,0 0,0 0,23.501 Z" /></clipPath></defs><g
     transform="matrix(1.25,0,0,-1.25,0,29.37625)"
     id="g10"><g
       id="g12"><g
         clip-path="url(#clipPath16)"
         id="g14"><g
           transform="translate(2,4.918)"
           id="g20"><path
             id="path22"
             style="fill:#f2eee8;fill-opacity:1;fill-rule:nonzero;stroke:none"
             d="m 0,0 17.75,0 0,11.583 c 0,2.757 -2.244,5 -5,5 l -7.75,0 c -2.758,0 -5,-2.243 -5,-5 L 0,0 Z M 18.75,-2 -1,-2 c -0.553,0 -1,0.447 -1,1 l 0,12.583 c 0,3.859 3.141,7 7,7 l 7.75,0 c 3.859,0 7,-3.141 7,-7 L 19.75,-1 c 0,-0.553 -0.447,-1 -1,-1" /></g><g
           transform="translate(5.041,0)"
           id="g24"><path
             id="path26"
             style="fill:#f2eee8;fill-opacity:1;fill-rule:nonzero;stroke:none"
             d="m 0,0 c -1.879,0 -3,0.61 -3,1.632 l 0,1.369 c 0,0.553 0.447,1 1,1 0.553,0 1,-0.447 1,-1 L -1,2.106 C -0.781,2.052 -0.441,2 0,2 0.441,2 0.781,2.052 1,2.106 l 0,0.895 c 0,0.553 0.447,1 1,1 0.553,0 1,-0.447 1,-1 L 3,1.632 C 3,0.61 1.879,0 0,0" /></g><g
           transform="translate(16.707,0)"
           id="g28"><path
             id="path30"
             style="fill:#f2eee8;fill-opacity:1;fill-rule:nonzero;stroke:none"
             d="m 0,0 c -1.879,0 -3,0.61 -3,1.632 l 0,1.369 c 0,0.553 0.447,1 1,1 0.553,0 1,-0.447 1,-1 L -1,2.106 C -0.781,2.052 -0.441,2 0,2 0.441,2 0.781,2.052 1,2.106 l 0,0.895 c 0,0.553 0.447,1 1,1 0.553,0 1,-0.447 1,-1 L 3,1.632 C 3,0.61 1.879,0 0,0" /></g><g
           transform="translate(15.709,18.583)"
           id="g32"><path
             id="path34"
             style="fill:#f2eee8;fill-opacity:1;fill-rule:nonzero;stroke:none"
             d="m 0,0 -9.668,0 c -0.553,0 -1,0.447 -1,1 0,0.553 0.447,1 1,1 L 0,2 C 0.553,2 1,1.553 1,1 1,0.447 0.553,0 0,0" /></g><g
           transform="translate(6.125,9.9141)"
           id="g36"><path
             id="path38"
             style="fill:#f2eee8;fill-opacity:1;fill-rule:nonzero;stroke:none"
             d="m 0,0 c -0.828,0 -1.498,-0.669 -1.498,-1.497 0,-0.828 0.67,-1.497 1.498,-1.497 0.828,0 1.496,0.669 1.496,1.497 C 1.496,-0.669 0.828,0 0,0" /></g><g
           transform="translate(15.625,9.9141)"
           id="g40"><path
             id="path42"
             style="fill:#f2eee8;fill-opacity:1;fill-rule:nonzero;stroke:none"
             d="m 0,0 c -0.828,0 -1.498,-0.669 -1.498,-1.497 0,-0.828 0.67,-1.497 1.498,-1.497 0.828,0 1.496,0.669 1.496,1.497 C 1.496,-0.669 0.828,0 0,0" /></g><g
           transform="translate(4,17.001)"
           id="g44"><path
             id="path46"
             style="fill:#f2eee8;fill-opacity:1;fill-rule:nonzero;stroke:none"
             d="m 0,0 c -0.275,0 -0.5,-0.225 -0.5,-0.5 l 0,-4.375 c 0,-0.275 0.225,-0.5 0.5,-0.5 l 13.75,0 c 0.275,0 0.5,0.225 0.5,0.5 l 0,4.375 c 0,0.275 -0.225,0.5 -0.5,0.5 L 0,0 Z m 13.75,-6.375 -13.75,0 c -0.828,0 -1.5,0.673 -1.5,1.5 l 0,4.375 C -1.5,0.327 -0.828,1 0,1 l 13.75,0 c 0.826,0 1.5,-0.673 1.5,-1.5 l 0,-4.375 c 0,-0.827 -0.674,-1.5 -1.5,-1.5" /></g></g></g></g></svg>