<?xml version="1.0" encoding="UTF-8" standalone="no"?>
<svg
   xmlns:dc="http://purl.org/dc/elements/1.1/"
   xmlns:cc="http://creativecommons.org/ns#"
   xmlns:rdf="http://www.w3.org/1999/02/22-rdf-syntax-ns#"
   xmlns:svg="http://www.w3.org/2000/svg"
   xmlns="http://www.w3.org/2000/svg"
   viewBox="0 0 32.534752 24.446375"
   height="24.446375"
   width="32.534752"
   xml:space="preserve"
   version="1.1"
   id="svg2"><metadata
     id="metadata8"><rdf:RDF><cc:Work
         rdf:about=""><dc:format>image/svg+xml</dc:format><dc:type
           rdf:resource="http://purl.org/dc/dcmitype/StillImage" /></cc:Work></rdf:RDF></metadata><defs
     id="defs6"><clipPath
       id="clipPath16"
       clipPathUnits="userSpaceOnUse"><path
         id="path18"
         d="m 0,19.557 26.028,0 L 26.028,0 0,0 0,19.557 Z" /></clipPath></defs><g
     transform="matrix(1.25,0,0,-1.25,0,24.446375)"
     id="g10"><g
       id="g12"><g
         clip-path="url(#clipPath16)"
         id="g14"><g
           transform="translate(22.0122,0)"
           id="g20"><path
             id="path22"
             style="fill:#f2eee8;fill-opacity:1;fill-rule:nonzero;stroke:none"
             d="m 0,0 -6.396,0 c -0.553,0 -1,0.448 -1,1 l 0,6.304 -3.206,0 0,-6.304 c 0,-0.552 -0.447,-1 -1,-1 l -6.396,0 c -0.553,0 -1,0.448 -1,1 l 0,10.387 c 0,0.552 0.447,1 1,1 0.553,0 1,-0.448 1,-1 l 0,-9.387 4.396,0 0,6.304 c 0,0.552 0.448,1 1,1 l 5.206,0 c 0.552,0 1,-0.448 1,-1 L -5.396,2 -1,2 l 0,9.387 c 0,0.552 0.447,1 1,1 0.553,0 1,-0.448 1,-1 L 1,1 C 1,0.448 0.553,0 0,0" /></g><g
           transform="translate(25.0259,8.9541)"
           id="g24"><path
             id="path26"
             style="fill:#f2eee8;fill-opacity:1;fill-rule:nonzero;stroke:none"
             d="M 0,0 C -0.201,0 -0.404,0.061 -0.58,0.187 L -12.012,8.374 -23.443,0.187 c -0.448,-0.322 -1.075,-0.218 -1.397,0.231 -0.32,0.449 -0.217,1.074 0.233,1.395 l 12.013,8.604 c 0.348,0.249 0.817,0.249 1.164,0 L 0.584,1.813 C 1.033,1.492 1.137,0.867 0.814,0.418 0.619,0.145 0.312,0 0,0" /></g></g></g></g></svg>